<?xml version="1.0" standalone="no"?>
<!DOCTYPE svg PUBLIC "-//W3C//DTD SVG 20010904//EN"
 "http://www.w3.org/TR/2001/REC-SVG-20010904/DTD/svg10.dtd">
<svg version="1.0" xmlns="http://www.w3.org/2000/svg"
 width="950.000000pt" height="950.000000pt" viewBox="0 0 950.000000 950.000000"
 preserveAspectRatio="xMidYMid meet">

<g transform="translate(0.000000,950.000000) scale(0.100000,-0.100000)"
fill="#000000" stroke="none">
<path d="M0 4750 l0 -4750 4750 0 4750 0 0 4750 0 4750 -4750 0 -4750 0 0
-4750z m6291 4484 c171 -32 321 -95 458 -191 87 -61 2111 -2080 2192 -2187 77
-101 161 -274 196 -401 l28 -100 3 -1136 3 -1137 -63 -11 c-215 -38 -308 -45
-588 -46 -229 0 -308 4 -400 18 -150 24 -311 66 -441 115 -297 111 -606 146
-943 107 -71 -8 -130 -14 -132 -12 -1 1 18 36 43 77 68 111 146 281 186 405
114 356 124 722 31 1153 -13 63 -24 131 -24 152 0 102 66 196 273 393 176 168
201 206 200 313 -1 91 -26 138 -129 237 -489 468 -1072 747 -1734 829 -157 19
-603 16 -760 -5 -432 -59 -776 -157 -1015 -290 -670 -370 -1111 -1007 -1246
-1798 -29 -175 -37 -473 -15 -636 78 -588 410 -1091 925 -1401 58 -35 135 -77
171 -94 36 -17 66 -32 68 -33 2 -2 -15 -29 -37 -60 -122 -174 -203 -567 -241
-1160 -15 -248 -24 -695 -14 -695 5 0 88 9 184 20 715 80 1569 93 2290 35 102
-8 205 -18 229 -21 l44 -7 -6 364 c-4 200 -10 412 -13 470 l-7 106 64 21 c121
40 224 62 339 73 98 10 130 10 216 -4 263 -42 417 -119 784 -393 265 -196 426
-289 625 -359 44 -16 83 -31 87 -34 12 -11 -1349 -1363 -1417 -1408 -176 -117
-276 -131 -397 -54 -27 17 -57 48 -72 73 -15 27 -60 167 -110 348 -76 277 -86
305 -107 311 -51 16 -434 46 -822 64 l-127 6 35 -63 c77 -135 148 -305 210
-503 24 -77 40 -143 37 -147 -8 -8 -453 -130 -458 -126 -2 2 -19 56 -38 120
-82 270 -177 456 -325 640 l-62 78 -29 -15 c-39 -20 -132 -125 -196 -221 -65
-98 -155 -284 -219 -454 -26 -69 -50 -129 -54 -133 -6 -6 -431 144 -449 159
-14 10 187 473 265 615 2 3 -9 4 -24 3 -16 -2 -120 -13 -233 -24 -113 -11
-214 -25 -226 -29 -22 -10 -36 -45 -145 -354 -71 -203 -77 -216 -131 -261 -80
-69 -205 -84 -302 -36 -31 16 -360 339 -1133 1114 -1154 1155 -1144 1144
-1228 1321 -40 85 -81 219 -95 314 -7 43 -10 598 -8 1591 l3 1525 22 78 c35
122 84 237 144 333 49 81 144 179 1104 1142 577 579 1079 1075 1114 1102 140
106 318 185 480 214 62 12 347 14 1577 15 1326 1 1511 -1 1585 -15z m-1411
-2874 c801 -41 1263 -196 1397 -469 25 -49 28 -67 28 -151 0 -87 -3 -101 -33
-162 -40 -81 -132 -171 -234 -227 -207 -115 -543 -174 -858 -151 -259 19 -429
60 -646 159 -51 22 -101 41 -113 41 -12 0 -63 -18 -114 -39 -217 -93 -412
-127 -682 -118 -393 13 -654 127 -748 325 -27 59 -29 70 -24 140 26 364 313
555 942 627 282 32 738 43 1085 25z m2111 -2900 c236 -24 397 -68 714 -200
108 -45 242 -96 299 -115 293 -96 625 -113 982 -50 76 13 140 22 142 21 6 -6
-41 -132 -76 -201 -19 -38 -57 -102 -84 -141 -60 -87 -61 -88 -258 -74 -398
27 -655 118 -1017 358 -188 125 -293 182 -444 243 -202 82 -413 129 -583 129
-90 0 -92 8 -8 26 72 16 200 17 333 4z m-2786 -90 c67 -11 213 -26 326 -33
l205 -12 -220 -272 c-122 -149 -223 -272 -226 -272 -3 -1 -36 70 -72 157 -37
86 -96 226 -132 311 l-65 154 32 -6 c18 -3 86 -15 152 -27z"/>
<path d="M3515 6061 c-74 -35 -116 -78 -151 -155 -23 -52 -26 -67 -22 -140 7
-125 64 -212 173 -266 70 -34 187 -35 262 -1 61 27 126 93 156 159 33 72 30
189 -6 260 -80 154 -259 216 -412 143z"/>
<path d="M5132 6073 c-59 -21 -145 -102 -170 -161 -68 -159 -6 -335 146 -409
48 -24 70 -28 137 -28 67 0 89 4 137 28 150 73 216 263 144 411 -33 68 -110
139 -173 160 -58 20 -164 19 -221 -1z"/>
</g>
</svg>
