<svg width="155" height="56" viewBox="0 0 155 56" fill="none" xmlns="http://www.w3.org/2000/svg">
<path d="M89.208 17.72L83.712 26.432L86.16 35H81.6L79.8 28.664H77.904L76.776 35H72.456L75.504 17.72H79.824L78.552 24.92H80.088L84.648 17.72H89.208ZM99.5179 31.304C99.5179 31.72 99.7259 31.928 100.142 31.928C100.574 31.928 100.934 31.848 101.222 31.688L101.102 34.4C100.334 35.024 99.4699 35.336 98.5099 35.336C96.7019 35.336 95.7179 34.64 95.5579 33.248C94.5979 34.64 93.3019 35.336 91.6699 35.336C90.0539 35.336 89.0059 34.968 88.5259 34.232C88.2059 33.768 88.0459 33.24 88.0459 32.648C88.0459 32.056 88.0939 31.512 88.1899 31.016L89.5339 23.456H93.6139L92.4859 29.84C92.4379 30.128 92.4139 30.416 92.4139 30.704C92.4139 31.472 92.8459 31.856 93.7099 31.856C94.4299 31.856 95.0059 31.608 95.4379 31.112L96.8059 23.456H100.886L99.5419 31.016C99.5259 31.112 99.5179 31.208 99.5179 31.304ZM114.356 25.904C114.356 26.448 114.26 26.976 114.068 27.488C113.892 28 113.716 28.376 113.54 28.616L113.276 28.952H109.652C110.052 28.584 110.252 28.128 110.252 27.584C110.252 27.296 110.156 27.064 109.964 26.888C109.788 26.696 109.54 26.6 109.22 26.6C108.676 26.6 108.204 26.872 107.804 27.416L106.46 35H102.38L104.42 23.456H108.212L107.924 25.064C108.836 23.768 109.94 23.12 111.236 23.12C112.276 23.12 113.052 23.368 113.564 23.864C114.092 24.36 114.356 25.04 114.356 25.904ZM122.22 23.12C123.948 23.12 125.252 23.496 126.132 24.248C126.82 24.84 127.164 25.664 127.164 26.72C127.164 27.072 127.124 27.456 127.044 27.872L126.54 30.68C126.236 32.376 125.524 33.576 124.404 34.28C123.3 34.984 121.82 35.336 119.964 35.336C118.108 35.336 116.748 34.984 115.884 34.28C115.244 33.752 114.924 32.96 114.924 31.904C114.924 31.536 114.964 31.128 115.044 30.68L115.548 27.872C116.108 24.704 118.332 23.12 122.22 23.12ZM122.868 28.352C122.9 28.192 122.916 27.992 122.916 27.752C122.916 27.496 122.812 27.216 122.604 26.912C122.396 26.608 122.028 26.456 121.5 26.456C120.988 26.456 120.556 26.632 120.204 26.984C119.852 27.32 119.628 27.776 119.532 28.352L119.22 30.152C119.188 30.312 119.172 30.52 119.172 30.776C119.172 31.016 119.276 31.28 119.484 31.568C119.692 31.856 120.052 32 120.564 32C121.092 32 121.532 31.824 121.884 31.472C122.236 31.104 122.46 30.664 122.556 30.152L122.868 28.352ZM133.439 35.336C130.111 35.336 128.447 34.184 128.447 31.88C128.447 31.56 128.479 31.216 128.543 30.848L129.047 27.872C129.303 26.336 129.999 25.16 131.135 24.344C132.287 23.528 133.743 23.112 135.503 23.096C138.911 23.096 140.615 24.28 140.615 26.648C140.615 27.16 140.551 27.624 140.423 28.04C140.311 28.44 140.191 28.712 140.062 28.856L139.871 29.096H135.791C136.191 28.744 136.391 28.328 136.391 27.848C136.391 26.984 135.959 26.552 135.095 26.552C134.583 26.552 134.143 26.704 133.775 27.008C133.407 27.312 133.167 27.776 133.055 28.4L132.743 30.152C132.711 30.312 132.695 30.464 132.695 30.608C132.695 31.456 133.223 31.88 134.279 31.88C134.631 31.88 134.943 31.768 135.215 31.544C135.503 31.32 135.671 31.072 135.719 30.8L139.703 30.848C139.175 33.84 137.087 35.336 133.439 35.336ZM148.962 23.12C150.69 23.12 151.994 23.496 152.874 24.248C153.562 24.84 153.906 25.664 153.906 26.72C153.906 27.072 153.866 27.456 153.786 27.872L153.282 30.68C152.978 32.376 152.266 33.576 151.146 34.28C150.042 34.984 148.562 35.336 146.706 35.336C144.85 35.336 143.49 34.984 142.626 34.28C141.986 33.752 141.666 32.96 141.666 31.904C141.666 31.536 141.706 31.128 141.786 30.68L142.29 27.872C142.85 24.704 145.074 23.12 148.962 23.12ZM149.61 28.352C149.642 28.192 149.658 27.992 149.658 27.752C149.658 27.496 149.554 27.216 149.346 26.912C149.138 26.608 148.77 26.456 148.242 26.456C147.73 26.456 147.298 26.632 146.946 26.984C146.594 27.32 146.37 27.776 146.274 28.352L145.962 30.152C145.93 30.312 145.914 30.52 145.914 30.776C145.914 31.016 146.018 31.28 146.226 31.568C146.434 31.856 146.794 32 147.306 32C147.834 32 148.274 31.824 148.626 31.472C148.978 31.104 149.202 30.664 149.298 30.152L149.61 28.352Z" fill="#0F1015"/>
<g clip-path="url(#clip0)">
<path d="M37.2038 0H18.79C17.2602 0 15.7931 0.608218 14.7085 1.68671L1.68652 14.7101C0.60815 15.7949 0 17.2621 0 18.7921V37.2079C0 38.7379 0.60815 40.2051 1.68652 41.2899L14.7085 54.3133C15.7931 55.3981 17.2602 56 18.79 56H37.2038C38.7335 56 40.2006 55.3918 41.2853 54.3133L54.3072 41.2899C55.3919 40.2051 55.9937 38.7379 55.9937 37.2079V18.7921C55.9937 17.2621 55.3856 15.7949 54.3072 14.7101L41.279 1.68671C40.2006 0.608218 38.7335 0 37.2038 0Z" fill="white"/>
<path d="M40.6145 54.8902C39.5111 55.6238 38.765 55.6614 38.0064 55.1786C37.8371 55.072 37.649 54.8777 37.555 54.7209C37.4609 54.5516 37.1788 53.6738 36.8653 52.5388C36.3888 50.802 36.3261 50.6264 36.1945 50.5888C35.8747 50.4885 33.4735 50.3004 31.0409 50.1875L30.2446 50.1499L30.464 50.5449C30.9468 51.3914 31.3919 52.4573 31.7807 53.6988C31.9311 54.1817 32.0314 54.5955 32.0126 54.6206C31.9625 54.6707 29.1725 55.4357 29.1412 55.4106C29.1286 55.3981 29.022 55.0595 28.9029 54.6582C28.3888 52.9652 27.7932 51.799 26.8653 50.6452L26.4766 50.1561L26.2948 50.2502C26.0503 50.3756 25.4672 51.034 25.0659 51.6359C24.6584 52.2504 24.0941 53.4167 23.6929 54.4826C23.5299 54.9153 23.3794 55.2915 23.3543 55.3166C23.3167 55.3542 20.6521 54.4137 20.5393 54.3196C20.4515 54.2569 21.7117 51.3538 22.2007 50.4634C22.2133 50.4446 22.1443 50.4383 22.0503 50.4446C21.9499 50.4571 21.2979 50.5261 20.5894 50.5951C19.881 50.664 19.2477 50.7518 19.1725 50.7769C19.0346 50.8396 18.9468 51.0591 18.2634 52.9966C17.8183 54.2694 17.7807 54.351 17.4421 54.6331C16.9405 55.0658 16.1443 55.2852 15.5361 54.9843C15.5361 54.9843 16.8402 56.0126 18.9092 56C21.5424 55.9875 37.5738 56 37.5738 56C37.5738 56 39.1725 55.9499 40.6145 54.8902ZM29.0534 18.1149C34.0753 18.372 36.9719 19.3439 37.812 21.0557C37.9688 21.3629 37.9876 21.4758 37.9876 22.0025C37.9876 22.548 37.9688 22.6358 37.7807 23.0183C37.5299 23.5262 36.9531 24.0905 36.3136 24.4417C35.0158 25.1627 32.9092 25.5327 30.9343 25.3885C29.3104 25.2693 28.2446 25.0123 26.8841 24.3915C26.5644 24.2536 26.2509 24.1344 26.1756 24.1344C26.1004 24.1344 25.7807 24.2473 25.4609 24.379C24.1004 24.9621 22.8778 25.1753 21.1851 25.1189C18.7211 25.0373 17.0847 24.3225 16.4954 23.081C16.3261 22.7111 16.3136 22.6421 16.3449 22.2032C16.5079 19.9208 18.3073 18.7232 22.2509 18.2717C24.0189 18.071 26.8778 18.0021 29.0534 18.1149ZM49.5612 46.0554C49.5361 46.0365 49.1098 45.8986 48.834 45.7983C47.5863 45.3594 46.5769 44.7762 44.9155 43.5472C42.6145 41.8292 41.649 41.3464 40.0001 41.083C39.4609 40.9952 39.2603 40.9952 38.6459 41.0579C37.9249 41.1269 37.2791 41.2649 36.5205 41.5157L36.1192 41.6473L36.1631 42.312C36.1819 42.6757 36.2195 44.005 36.2446 45.259L36.2822 47.5414L36.0064 47.4975C35.8559 47.4787 35.2101 47.416 34.5706 47.3659C30.0503 47.0022 24.696 47.0837 20.2133 47.5853C19.6114 47.6543 19.091 47.7107 19.0597 47.7107C18.997 47.7107 19.0534 44.9079 19.1474 43.3529C19.3857 39.6346 19.8935 37.1704 20.6584 36.0793C20.7963 35.8849 20.9029 35.7156 20.8904 35.7031C20.8778 35.6968 20.6898 35.6028 20.464 35.4962C20.2383 35.3896 19.7556 35.1262 19.3919 34.9068C16.1631 32.963 14.0816 29.809 13.5926 26.1221C13.4546 25.1 13.5048 23.2315 13.6866 22.1342C14.533 17.1744 17.2979 13.1802 21.4985 10.8602C22.997 10.0263 25.1537 9.41177 27.8622 9.04182C28.8465 8.91014 31.6427 8.89133 32.6271 9.01047C36.7775 9.52463 40.4327 11.274 43.4985 14.2085C44.1443 14.8293 44.301 15.124 44.3073 15.6946C44.3136 16.3655 44.1568 16.6038 43.0534 17.6572C41.7556 18.8925 41.3418 19.4819 41.3418 20.1214C41.3418 20.2531 41.4108 20.6795 41.4923 21.0745C42.0753 23.777 42.0126 26.0719 41.2979 28.3042C41.0471 29.0817 40.5581 30.1476 40.1318 30.8436C39.975 31.1007 39.8559 31.3202 39.8622 31.3264C39.8747 31.339 40.2446 31.3014 40.6898 31.2512C42.8026 31.0067 44.7399 31.2261 46.602 31.9221C47.417 32.2294 48.4264 32.4927 49.3669 32.6432C49.9437 32.731 50.439 32.7561 51.8747 32.7561C53.6302 32.7498 54.6521 32.593 56.0001 32.3548C56.0001 32.3548 55.9938 36.3176 55.9938 37.0888C55.9938 37.8601 55.8684 38.4244 55.8684 38.4244C53.4546 39.0389 50.4766 38.8759 48.6333 38.2739C48.276 38.1548 47.4358 37.835 46.7587 37.5528C44.7713 36.7252 43.7619 36.4493 42.2822 36.2988C41.4484 36.2173 40.6459 36.2235 40.1945 36.3239C39.6678 36.4367 39.6804 36.4869 40.2446 36.4869C41.3104 36.4869 42.6333 36.7816 43.8998 37.2958C44.8465 37.6782 45.5048 38.0357 46.6835 38.8194C48.9531 40.3243 51.091 41.1645 54.37 41.2272L49.5612 46.0554ZM24.8214 36.8631C25.2415 36.9321 26.1568 37.0261 26.8653 37.07L28.1506 37.1453L26.7713 38.8508C26.0064 39.7851 25.3731 40.5563 25.3543 40.5563C25.3355 40.5626 25.1286 40.1174 24.9029 39.5719C24.6709 39.0326 24.301 38.1548 24.0753 37.6218L23.6678 36.6562L23.8684 36.6938C23.9813 36.7126 24.4076 36.7879 24.8214 36.8631Z" fill="#0F1015"/>
<path d="M29.1283 18.0585C34.1502 18.3156 37.0468 19.2875 37.8869 20.9993C38.0436 21.3066 38.0625 21.4194 38.0625 21.9461C38.0625 22.4916 38.0436 22.5794 37.8556 22.9619C37.6048 23.4698 37.028 24.0341 36.3885 24.3853C35.0907 25.1064 32.9841 25.4763 31.0092 25.3321C29.3853 25.213 28.3195 24.9559 26.959 24.3351C26.6393 24.1972 26.3258 24.078 26.2505 24.078C26.1753 24.078 25.8556 24.1909 25.5358 24.3226C24.1753 24.9057 22.9527 25.1189 21.26 25.0625C18.796 24.981 17.1596 24.2661 16.5703 23.0246C16.401 22.6547 16.3885 22.5857 16.4198 22.1468C16.5828 19.8644 18.3822 18.6668 22.3258 18.2153C24.0938 18.0146 26.9527 17.9457 29.1283 18.0585Z" fill="white"/>
<path d="M24.8216 36.8632C25.2416 36.9321 26.157 37.0262 26.8655 37.0701L28.1507 37.1453L26.7714 38.8508C26.0065 39.7851 25.3733 40.5563 25.3545 40.5563C25.3357 40.5626 25.1288 40.1174 24.9031 39.5719C24.6711 39.0327 24.3012 38.1548 24.0755 37.6219L23.668 36.6562L23.8686 36.6939C23.9814 36.7127 24.4078 36.7879 24.8216 36.8632Z" fill="white"/>
<path d="M20.5823 19.9897C20.1183 20.2091 19.855 20.4788 19.6356 20.9616C19.4914 21.2876 19.4726 21.3817 19.4976 21.8394C19.5415 22.6232 19.8989 23.1687 20.5823 23.5073C21.0211 23.7205 21.7547 23.7268 22.2249 23.5136C22.6073 23.3443 23.0149 22.9305 23.203 22.5166C23.4098 22.0652 23.391 21.3315 23.1653 20.8863C22.6638 19.9207 21.5415 19.5319 20.5823 19.9897Z" fill="#0F1015"/>
<path d="M30.7203 19.9144C30.3504 20.0461 29.8112 20.554 29.6545 20.9239C29.2281 21.9209 29.6168 23.0245 30.5698 23.4885C30.8708 23.6389 31.0087 23.664 31.4287 23.664C31.8488 23.664 31.9867 23.6389 32.2877 23.4885C33.2281 23.0307 33.6419 21.8394 33.1905 20.9114C32.9836 20.485 32.5008 20.0398 32.1059 19.9081C31.7422 19.7827 31.0777 19.789 30.7203 19.9144Z" fill="#0F1015"/>
</g>
<defs>
<clipPath id="clip0">
<rect width="56" height="56" fill="white"/>
</clipPath>
</defs>
</svg>
